<?xml version="1.0" encoding="UTF-8"?>
<svg xmlns="http://www.w3.org/2000/svg" xmlns:xlink="http://www.w3.org/1999/xlink" width="504pt" height="504pt" viewBox="0 0 504 504" version="1.1">
<defs>
<clipPath id="clip1">
  <path d="M 84.570312 59.039062 L 420.433594 59.039062 L 420.433594 445.960938 L 84.570312 445.960938 Z M 84.570312 59.039062 "/>
</clipPath>
</defs>
<g id="surface6">
<rect x="0" y="0" width="504" height="504" style="fill:rgb(100%,100%,100%);fill-opacity:1;stroke:none;"/>
<g clip-path="url(#clip1)" clip-rule="nonzero">
<path style="fill-rule:nonzero;fill:rgb(100%,0%,0%);fill-opacity:1;stroke-width:0.75;stroke-linecap:round;stroke-linejoin:round;stroke:rgb(0%,0%,0%);stroke-opacity:1;stroke-miterlimit:10;" d="M 420.546875 338.679688 L 355.324219 338.679688 L 353.488281 342.15625 L 348.894531 343.316406 L 344.304688 339.839844 L 344.304688 336.359375 L 336.953125 334.042969 L 325.011719 325.925781 L 318.582031 305.058594 L 313.992188 294.625 L 306.640625 287.667969 L 298.375 281.871094 L 292.863281 276.074219 L 293.78125 267.957031 L 292.863281 264.480469 L 292.863281 254.046875 L 304.804688 261.003906 L 307.5625 270.277344 L 315.828125 270.277344 L 317.664062 276.074219 L 329.605469 276.074219 L 338.792969 281.871094 L 339.710938 293.464844 L 402.171875 272.59375 L 408.605469 271.4375 L 408.605469 327.085938 L 416.871094 329.40625 Z M 420.546875 338.679688 "/>
<path style="fill-rule:nonzero;fill:rgb(0%,100%,0%);fill-opacity:1;stroke-width:0.75;stroke-linecap:round;stroke-linejoin:round;stroke:rgb(0%,0%,0%);stroke-opacity:1;stroke-miterlimit:10;" d="M 405.847656 214.628906 L 403.089844 223.902344 L 407.683594 228.539062 L 403.089844 233.179688 L 404.011719 241.292969 L 408.605469 245.929688 L 404.929688 261.003906 L 410.441406 265.640625 L 408.605469 271.4375 L 402.171875 272.59375 L 339.710938 293.464844 L 338.792969 281.871094 L 329.605469 276.074219 L 317.664062 276.074219 L 315.828125 270.277344 L 307.5625 270.277344 L 304.804688 261.003906 L 283.679688 248.25 L 279.085938 247.089844 L 276.328125 241.292969 L 278.167969 240.132812 L 280.921875 235.496094 L 282.757812 230.859375 L 282.757812 228.539062 L 294.703125 228.539062 L 297.457031 223.902344 L 302.050781 221.582031 L 299.292969 221.582031 L 316.746094 228.539062 L 322.257812 222.742188 L 336.035156 220.425781 L 353.488281 223.902344 L 360.839844 220.425781 L 363.59375 221.582031 L 364.511719 225.0625 L 370.023438 229.699219 L 383.800781 228.539062 L 387.476562 221.582031 L 388.394531 214.628906 L 397.582031 214.628906 L 400.335938 212.308594 Z M 405.847656 214.628906 "/>
<path style="fill-rule:nonzero;fill:rgb(0%,0%,100%);fill-opacity:1;stroke-width:0.75;stroke-linecap:round;stroke-linejoin:round;stroke:rgb(0%,0%,0%);stroke-opacity:1;stroke-miterlimit:10;" d="M 272.652344 45.363281 L 269.898438 48.839844 L 269.898438 53.476562 L 272.652344 55.796875 L 273.574219 59.273438 L 270.816406 62.75 L 273.574219 66.230469 L 274.492188 69.707031 L 271.738281 70.867188 L 268.980469 74.34375 L 270.816406 80.140625 L 260.714844 92.894531 L 240.503906 97.53125 L 236.832031 99.851562 L 231.320312 92.894531 L 226.726562 91.734375 L 217.542969 76.664062 L 216.621094 70.867188 L 212.027344 69.707031 L 212.027344 66.230469 L 208.355469 62.75 L 206.515625 59.273438 L 199.167969 56.953125 L 189.984375 48.839844 L 184.472656 48.839844 L 183.554688 44.203125 L 178.042969 31.449219 L 164.265625 25.652344 L 164.265625 18.695312 L 159.667969 16.375 L 158.753906 9.421875 L 162.484375 0 L 259.792969 0 L 259.792969 3.625 L 255.199219 7.101562 L 258.875 12.898438 L 257.957031 22.171875 L 260.714844 26.8125 L 268.980469 32.609375 L 271.738281 38.402344 Z M 272.652344 45.363281 "/>
<path style="fill-rule:nonzero;fill:rgb(100%,64.705882%,0%);fill-opacity:1;stroke-width:0.75;stroke-linecap:round;stroke-linejoin:round;stroke:rgb(0%,0%,0%);stroke-opacity:1;stroke-miterlimit:10;" d="M 185.390625 172.890625 L 192.738281 170.570312 L 214.785156 189.121094 L 234.074219 199.554688 L 243.261719 197.238281 L 256.121094 211.148438 L 262.550781 208.832031 L 261.632812 218.105469 L 259.792969 222.742188 L 259.792969 228.539062 L 268.0625 233.179688 L 268.0625 236.65625 L 263.46875 237.816406 L 262.550781 241.292969 L 265.308594 248.25 L 271.738281 254.046875 L 271.738281 257.523438 L 269.898438 258.683594 L 263.46875 254.046875 L 261.632812 255.203125 L 264.386719 264.480469 L 263.46875 266.800781 L 256.121094 264.480469 L 251.527344 261.003906 L 248.773438 257.523438 L 241.421875 255.203125 L 234.996094 248.25 L 233.15625 248.25 L 231.320312 250.566406 L 229.480469 248.25 L 215.703125 240.132812 L 212.027344 234.335938 L 203.761719 228.539062 L 196.414062 226.222656 L 194.578125 219.265625 L 189.0625 222.742188 L 187.226562 229.699219 L 185.390625 232.019531 L 181.714844 233.179688 L 178.960938 229.699219 L 179.878906 222.742188 L 186.308594 205.351562 L 185.390625 196.078125 L 182.632812 189.121094 L 186.308594 187.960938 L 189.984375 193.757812 L 194.578125 196.078125 L 196.414062 193.757812 L 194.578125 185.644531 L 188.148438 178.6875 Z M 185.390625 172.890625 "/>
<path style="fill-rule:nonzero;fill:rgb(100%,0%,100%);fill-opacity:1;stroke-width:0.75;stroke-linecap:round;stroke-linejoin:round;stroke:rgb(0%,0%,0%);stroke-opacity:1;stroke-miterlimit:10;" d="M 162.484375 0 L 158.753906 9.421875 L 159.667969 16.375 L 164.265625 18.695312 L 164.265625 25.652344 L 178.042969 31.449219 L 183.554688 44.203125 L 184.472656 48.839844 L 189.984375 48.839844 L 199.167969 56.953125 L 206.515625 59.273438 L 165.183594 59.273438 L 164.265625 62.75 L 155.996094 62.75 L 155.996094 68.546875 L 119.253906 69.707031 L 119.253906 74.34375 L 101.800781 76.664062 L 99.960938 81.300781 L 97.207031 76.664062 L 85.269531 66.230469 L 82.511719 59.273438 L 73.324219 54.636719 L 61.382812 39.5625 L 68.734375 16.375 L 60.082031 0 Z M 162.484375 0 "/>
<path style="fill-rule:nonzero;fill:rgb(100%,0%,0%);fill-opacity:1;stroke-width:0.75;stroke-linecap:round;stroke-linejoin:round;stroke:rgb(0%,0%,0%);stroke-opacity:1;stroke-miterlimit:10;" d="M 273.574219 59.273438 L 277.25 62.75 L 281.839844 61.59375 L 291.945312 66.230469 L 296.539062 81.300781 L 299.292969 85.9375 L 297.457031 89.417969 L 300.210938 94.054688 L 304.804688 95.214844 L 304.804688 99.851562 L 310.316406 103.328125 L 308.480469 107.964844 L 313.070312 109.125 L 316.746094 125.355469 L 318.582031 129.992188 L 316.746094 135.789062 L 315.828125 149.703125 L 327.769531 170.570312 L 302.050781 170.570312 L 301.132812 198.398438 L 305.722656 203.035156 L 296.539062 205.351562 L 291.027344 203.035156 L 287.351562 205.351562 L 280.921875 201.875 L 277.25 198.398438 L 279.085938 189.121094 L 268.980469 163.613281 L 263.46875 162.457031 L 265.308594 156.660156 L 257.957031 152.023438 L 259.792969 145.066406 L 250.609375 138.109375 L 246.015625 127.675781 L 234.996094 119.558594 L 232.238281 114.921875 L 234.996094 110.285156 L 234.996094 105.648438 L 236.832031 99.851562 L 240.503906 97.53125 L 260.714844 92.894531 L 270.816406 80.140625 L 268.980469 74.34375 L 271.738281 70.867188 L 274.492188 69.707031 L 273.574219 66.230469 L 270.816406 62.75 Z M 273.574219 59.273438 "/>
<path style="fill-rule:nonzero;fill:rgb(0%,100%,0%);fill-opacity:1;stroke-width:0.75;stroke-linecap:round;stroke-linejoin:round;stroke:rgb(0%,0%,0%);stroke-opacity:1;stroke-miterlimit:10;" d="M 496.785156 174.050781 L 486.683594 172.890625 L 473.820312 179.847656 L 462.796875 183.324219 L 453.613281 182.164062 L 448.101562 185.644531 L 432.484375 187.960938 L 427.894531 182.164062 L 420.546875 182.164062 L 419.625 184.484375 L 416.871094 186.804688 L 415.03125 191.441406 L 411.359375 194.917969 L 410.441406 199.554688 L 404.011719 208.832031 L 406.765625 212.308594 L 405.847656 214.628906 L 400.335938 212.308594 L 397.582031 214.628906 L 388.394531 214.628906 L 387.476562 221.582031 L 383.800781 228.539062 L 370.023438 229.699219 L 364.511719 225.0625 L 363.59375 221.582031 L 370.941406 221.582031 L 374.617188 216.945312 L 380.128906 216.945312 L 382.882812 214.628906 L 387.476562 203.035156 L 398.496094 193.757812 L 400.335938 187.960938 L 402.171875 170.570312 L 404.929688 165.933594 L 412.277344 158.976562 L 415.03125 152.023438 L 413.195312 147.382812 L 416.871094 142.746094 L 416.871094 136.949219 L 408.605469 132.3125 L 416.871094 125.355469 L 416.871094 118.402344 L 405.847656 103.328125 L 400.335938 103.328125 L 397.582031 97.53125 L 397.582031 92.894531 L 401.253906 84.777344 L 472.902344 88.257812 L 473.820312 91.734375 L 476.578125 88.257812 L 491.273438 127.675781 L 494.03125 129.992188 Z M 496.785156 174.050781 "/>
<path style="fill-rule:nonzero;fill:rgb(0%,0%,100%);fill-opacity:1;stroke-width:0.75;stroke-linecap:round;stroke-linejoin:round;stroke:rgb(0%,0%,0%);stroke-opacity:1;stroke-miterlimit:10;" d="M 428.863281 504 L 424.21875 502.148438 L 421.460938 497.511719 L 426.976562 491.714844 L 422.382812 489.398438 L 421.460938 485.917969 L 416.871094 487.078125 L 407.683594 476.644531 L 395.742188 466.210938 L 393.90625 459.253906 L 398.496094 453.457031 L 401.253906 455.773438 L 406.765625 456.933594 L 416.871094 448.820312 L 416.871094 441.863281 L 424.21875 439.542969 L 431.566406 446.5 L 453.613281 445.339844 L 459.125 445.339844 L 462.796875 455.773438 L 471.066406 455.773438 L 474.742188 469.6875 L 504 484.636719 L 504 504 Z M 428.863281 504 "/>
<path style="fill-rule:nonzero;fill:rgb(100%,64.705882%,0%);fill-opacity:1;stroke-width:0.75;stroke-linecap:round;stroke-linejoin:round;stroke:rgb(0%,0%,0%);stroke-opacity:1;stroke-miterlimit:10;" d="M 279.085938 294.625 L 263.46875 294.625 L 261.632812 291.144531 L 259.792969 281.871094 L 259.792969 277.234375 L 265.308594 276.074219 L 270.816406 271.4375 L 272.652344 273.753906 L 281.839844 273.753906 L 282.757812 281.871094 L 285.515625 287.667969 L 281.839844 288.828125 L 279.085938 291.144531 Z M 279.085938 294.625 "/>
<path style="fill-rule:nonzero;fill:rgb(100%,0%,100%);fill-opacity:1;stroke-width:0.75;stroke-linecap:round;stroke-linejoin:round;stroke:rgb(0%,0%,0%);stroke-opacity:1;stroke-miterlimit:10;" d="M 405.847656 214.628906 L 406.765625 212.308594 L 404.011719 208.832031 L 410.441406 199.554688 L 411.359375 194.917969 L 415.03125 191.441406 L 416.871094 186.804688 L 419.625 184.484375 L 420.546875 182.164062 L 427.894531 182.164062 L 432.484375 187.960938 L 448.101562 185.644531 L 453.613281 182.164062 L 462.796875 183.324219 L 473.820312 179.847656 L 486.683594 172.890625 L 496.785156 174.050781 L 500.460938 189.121094 L 500.460938 193.757812 L 503.214844 205.351562 L 504 206.839844 L 504 285.074219 L 499.542969 283.03125 L 491.273438 287.667969 L 483.007812 287.667969 L 462.796875 295.78125 L 420.546875 338.679688 L 416.871094 329.40625 L 408.605469 327.085938 L 408.605469 271.4375 L 410.441406 265.640625 L 404.929688 261.003906 L 408.605469 245.929688 L 404.011719 241.292969 L 403.089844 233.179688 L 407.683594 228.539062 L 403.089844 223.902344 Z M 405.847656 214.628906 "/>
<path style="fill-rule:nonzero;fill:rgb(100%,0%,0%);fill-opacity:1;stroke-width:0.75;stroke-linecap:round;stroke-linejoin:round;stroke:rgb(0%,0%,0%);stroke-opacity:1;stroke-miterlimit:10;" d="M 315.828125 380.417969 L 314.910156 385.054688 L 314.910156 393.167969 L 301.132812 393.167969 L 299.292969 397.808594 L 288.269531 397.808594 L 288.269531 407.082031 L 285.515625 404.761719 L 282.757812 397.808594 L 277.25 392.007812 L 274.492188 383.894531 L 277.25 364.183594 L 276.328125 353.75 L 272.652344 351.433594 L 269.898438 345.636719 L 269.898438 337.519531 L 268.0625 334.042969 L 261.632812 331.722656 L 258.875 324.769531 L 258.875 312.015625 L 263.46875 308.535156 L 263.46875 305.058594 L 261.632812 300.417969 L 263.46875 294.625 L 279.085938 294.625 L 280.921875 299.261719 L 283.679688 302.738281 L 281.839844 312.015625 L 296.539062 316.652344 L 302.050781 320.128906 L 305.722656 324.769531 L 318.582031 330.5625 L 326.851562 338.679688 L 315.828125 345.636719 L 309.398438 345.636719 L 305.722656 359.546875 L 310.316406 368.824219 L 309.398438 372.300781 L 311.234375 373.460938 L 312.152344 376.9375 Z M 315.828125 380.417969 "/>
<path style="fill-rule:nonzero;fill:rgb(0%,100%,0%);fill-opacity:1;stroke-width:0.75;stroke-linecap:round;stroke-linejoin:round;stroke:rgb(0%,0%,0%);stroke-opacity:1;stroke-miterlimit:10;" d="M 326.851562 338.679688 L 329.605469 341 L 336.035156 343.316406 L 341.546875 343.316406 L 345.222656 339.839844 L 348.894531 343.316406 L 353.488281 342.15625 L 355.324219 338.679688 L 420.546875 338.679688 L 419.625 345.636719 L 423.300781 347.953125 L 420.546875 352.59375 L 425.136719 359.546875 L 431.566406 359.546875 L 432.484375 365.34375 L 429.730469 369.980469 L 431.566406 372.300781 L 429.730469 380.417969 L 425.136719 380.417969 L 426.054688 390.851562 L 431.566406 396.648438 L 431.566406 404.761719 L 434.324219 405.921875 L 438.914062 401.285156 L 444.425781 402.445312 L 448.101562 404.761719 L 454.53125 400.125 L 458.203125 405.921875 L 460.960938 408.242188 L 460.960938 414.039062 L 457.289062 418.675781 L 458.203125 419.835938 L 462.796875 420.996094 L 462.796875 424.472656 L 456.367188 431.429688 L 457.289062 439.542969 L 459.125 445.339844 L 431.566406 446.5 L 424.21875 439.542969 L 416.871094 441.863281 L 416.871094 448.820312 L 406.765625 456.933594 L 401.253906 455.773438 L 393.90625 448.820312 L 391.152344 444.183594 L 385.636719 444.183594 L 384.71875 434.90625 L 380.128906 433.746094 L 375.535156 427.949219 L 365.429688 423.3125 L 363.59375 416.355469 L 335.117188 404.761719 L 332.359375 395.488281 L 322.257812 390.851562 L 318.582031 382.734375 L 312.152344 376.9375 L 311.234375 373.460938 L 309.398438 372.300781 L 310.316406 368.824219 L 305.722656 359.546875 L 309.398438 345.636719 L 315.828125 345.636719 Z M 326.851562 338.679688 "/>
<path style="fill-rule:nonzero;fill:rgb(0%,0%,100%);fill-opacity:1;stroke-width:0.75;stroke-linecap:round;stroke-linejoin:round;stroke:rgb(0%,0%,0%);stroke-opacity:1;stroke-miterlimit:10;" d="M 288.269531 407.082031 L 288.269531 397.808594 L 299.292969 397.808594 L 301.132812 393.167969 L 314.910156 393.167969 L 314.910156 385.054688 L 315.828125 380.417969 L 318.582031 382.734375 L 322.257812 390.851562 L 332.359375 395.488281 L 335.117188 404.761719 L 363.59375 416.355469 L 365.429688 423.3125 L 375.535156 427.949219 L 380.128906 433.746094 L 384.71875 434.90625 L 385.636719 444.183594 L 391.152344 444.183594 L 393.90625 448.820312 L 398.496094 453.457031 L 393.90625 459.253906 L 390.230469 455.773438 L 380.128906 454.617188 L 376.453125 456.933594 L 374.617188 460.414062 L 369.105469 454.617188 L 363.59375 446.5 L 351.652344 439.542969 L 348.894531 443.023438 L 344.304688 443.023438 L 341.546875 440.703125 L 335.117188 443.023438 L 331.445312 443.023438 L 320.421875 439.542969 L 302.96875 425.632812 L 299.292969 417.515625 L 295.617188 414.039062 L 290.109375 411.71875 Z M 288.269531 407.082031 "/>
<path style="fill-rule:nonzero;fill:rgb(100%,64.705882%,0%);fill-opacity:1;stroke-width:0.75;stroke-linecap:round;stroke-linejoin:round;stroke:rgb(0%,0%,0%);stroke-opacity:1;stroke-miterlimit:10;" d="M 318.582031 129.992188 L 325.011719 128.835938 L 328.6875 133.472656 L 334.199219 135.789062 L 341.546875 127.675781 L 356.246094 125.355469 L 376.453125 126.515625 L 385.636719 124.199219 L 385.636719 170.570312 L 402.171875 170.570312 L 400.335938 187.960938 L 398.496094 193.757812 L 387.476562 203.035156 L 382.882812 214.628906 L 380.128906 216.945312 L 374.617188 216.945312 L 370.941406 221.582031 L 363.59375 221.582031 L 360.839844 220.425781 L 353.488281 223.902344 L 336.035156 220.425781 L 322.257812 222.742188 L 316.746094 228.539062 L 299.292969 221.582031 L 316.746094 223.902344 L 314.910156 220.425781 L 308.480469 218.105469 L 296.539062 211.148438 L 296.539062 205.351562 L 305.722656 203.035156 L 301.132812 198.398438 L 302.050781 170.570312 L 327.769531 170.570312 L 315.828125 149.703125 L 316.746094 135.789062 Z M 318.582031 129.992188 "/>
<path style="fill-rule:nonzero;fill:rgb(100%,0%,100%);fill-opacity:1;stroke-width:0.75;stroke-linecap:round;stroke-linejoin:round;stroke:rgb(0%,0%,0%);stroke-opacity:1;stroke-miterlimit:10;" d="M 277.25 198.398438 L 273.574219 197.238281 L 269.898438 200.714844 L 268.980469 205.351562 L 266.222656 206.511719 L 257.039062 205.351562 L 259.792969 208.832031 L 262.550781 208.832031 L 256.121094 211.148438 L 243.261719 197.238281 L 234.074219 199.554688 L 214.785156 189.121094 L 192.738281 170.570312 L 185.390625 172.890625 L 177.125 167.09375 L 171.613281 167.09375 L 162.425781 143.90625 L 154.160156 133.472656 L 133.03125 124.199219 L 124.765625 113.761719 L 119.253906 101.011719 L 110.988281 89.417969 L 103.636719 85.9375 L 99.960938 81.300781 L 101.800781 76.664062 L 119.253906 74.34375 L 119.253906 69.707031 L 155.996094 68.546875 L 155.996094 62.75 L 164.265625 62.75 L 165.183594 59.273438 L 206.515625 59.273438 L 208.355469 62.75 L 212.027344 66.230469 L 212.027344 69.707031 L 216.621094 70.867188 L 217.542969 76.664062 L 226.726562 91.734375 L 231.320312 92.894531 L 236.832031 99.851562 L 234.996094 105.648438 L 234.996094 110.285156 L 232.238281 114.921875 L 234.996094 119.558594 L 246.015625 127.675781 L 250.609375 138.109375 L 259.792969 145.066406 L 257.957031 152.023438 L 265.308594 156.660156 L 263.46875 162.457031 L 268.980469 163.613281 L 279.085938 189.121094 Z M 277.25 198.398438 "/>
<path style="fill-rule:nonzero;fill:rgb(100%,0%,0%);fill-opacity:1;stroke-width:0.75;stroke-linecap:round;stroke-linejoin:round;stroke:rgb(0%,0%,0%);stroke-opacity:1;stroke-miterlimit:10;" d="M 401.253906 84.777344 L 400.335938 76.664062 L 397.582031 74.34375 L 394.824219 77.824219 L 391.152344 76.664062 L 388.394531 81.300781 L 386.558594 78.984375 L 386.558594 73.1875 L 381.964844 68.546875 L 380.128906 58.113281 L 372.777344 59.273438 L 367.269531 55.796875 L 370.023438 51.15625 L 365.429688 44.203125 L 364.511719 37.246094 L 370.941406 32.609375 L 362.675781 18.695312 L 355.324219 15.21875 L 348.894531 7.101562 L 347.019531 0 L 400.25 0 L 402.171875 16.375 L 399.417969 22.171875 L 404.929688 47.679688 L 409.519531 39.5625 L 421.460938 33.765625 L 430.648438 32.609375 L 431.566406 37.246094 L 430.648438 46.519531 L 423.300781 46.519531 L 423.300781 81.300781 L 419.625 81.300781 L 420.546875 85.9375 Z M 401.253906 84.777344 "/>
<path style="fill-rule:nonzero;fill:rgb(0%,100%,0%);fill-opacity:1;stroke-width:0.75;stroke-linecap:round;stroke-linejoin:round;stroke:rgb(0%,0%,0%);stroke-opacity:1;stroke-miterlimit:10;" d="M 402.171875 170.570312 L 385.636719 170.570312 L 385.636719 124.199219 L 376.453125 126.515625 L 356.246094 125.355469 L 341.546875 127.675781 L 334.199219 135.789062 L 328.6875 133.472656 L 325.011719 128.835938 L 318.582031 129.992188 L 316.746094 125.355469 L 313.070312 109.125 L 308.480469 107.964844 L 310.316406 103.328125 L 304.804688 99.851562 L 304.804688 95.214844 L 300.210938 94.054688 L 297.457031 89.417969 L 299.292969 85.9375 L 296.539062 81.300781 L 291.945312 66.230469 L 281.839844 61.59375 L 277.25 62.75 L 273.574219 59.273438 L 272.652344 55.796875 L 269.898438 53.476562 L 269.898438 48.839844 L 272.652344 45.363281 L 365.429688 44.203125 L 368.1875 48.839844 L 370.023438 51.15625 L 367.269531 55.796875 L 372.777344 59.273438 L 380.128906 58.113281 L 381.964844 68.546875 L 386.558594 73.1875 L 386.558594 78.984375 L 388.394531 81.300781 L 391.152344 76.664062 L 394.824219 77.824219 L 397.582031 74.34375 L 400.335938 76.664062 L 401.253906 84.777344 L 397.582031 92.894531 L 397.582031 97.53125 L 400.335938 103.328125 L 405.847656 103.328125 L 416.871094 118.402344 L 416.871094 125.355469 L 408.605469 132.3125 L 416.871094 136.949219 L 416.871094 142.746094 L 413.195312 147.382812 L 415.03125 152.023438 L 412.277344 158.976562 L 404.929688 165.933594 Z M 402.171875 170.570312 "/>
</g>
</g>
</svg>
